<?xml version="1.0" encoding="UTF-8"?>
<svg width="500" height="500" viewBox="0 0 500 500" xmlns="http://www.w3.org/2000/svg">
  <defs>
    <linearGradient id="logoGradient1" x1="0%" y1="0%" x2="100%" y2="100%">
      <stop offset="0%" style="stop-color:#7dd3fc" />
      <stop offset="100%" style="stop-color:#60a5fa" />
    </linearGradient>
    <linearGradient id="logoGradient2" x1="0%" y1="0%" x2="100%" y2="100%">
      <stop offset="0%" style="stop-color:#3b82f6" />
      <stop offset="100%" style="stop-color:#1d4ed8" />
    </linearGradient>
  </defs>
  <g transform="translate(50, 50) scale(0.8)">
    <path
      d="M250,0 
         C388.071,0 500,111.929 500,250 
         C500,388.071 388.071,500 250,500 
         C111.929,500 0,388.071 0,250 
         C0,111.929 111.929,0 250,0 
         L250,250 Z"
      fill="url(#logoGradient1)"
    />
    <path
      d="M250,0 
         C388.071,0 500,111.929 500,250 
         C500,388.071 388.071,500 250,500 
         C111.929,500 0,388.071 0,250 
         C0,111.929 111.929,0 250,0 
         L250,250 Z"
      fill="url(#logoGradient2)"
      transform="rotate(180 250 250)"
    />
    <circle cx="250" cy="125" r="50" fill="url(#logoGradient2)" />
    <circle cx="250" cy="375" r="50" fill="url(#logoGradient1)" />
  </g>
</svg>